# xmcd CD database file
#
# Track frame offsets:
#	150
#	23054
#	42222
#	57066
#	70836
#	86386
#	105509
#	128918
#	145079
#	158683
#	169978
#	186662
#	199826
#
# Disc length: 2972 seconds
#
# Revision: 0
# Processed by: cddbd v1.5.2PL0 Copyright (c) Steve Scherf et al.
# Submitted via: CDex 1.70
#
DISCID=ad0b9a0d
DTITLE=Various Artist - Autour De Minuit CD2
DYEAR=2011
DGENRE=Jazz
TTITLE0=Cry Me A River - Diana Krall
TTITLE1=Desafinado - Stan Getz, Joao Gilberto
TTITLE2=Since I Fell For You - Dinah Washington
TTITLE3=My Baby Just Cares For Me - Terez Montcalm
TTITLE4=I'm A Fool To Want You - Billie Holiday
TTITLE5=Mad About The Boy - Carmen McRae
TTITLE6=What A Difference A Day Made - Jamie Cullum
TTITLE7=Let's Do It (Let's Fall In Love) - Ella Fitzgerald
TTITLE8=Misty - Sarah Vaughan
TTITLE9=I've Got A Crush On You - Dorothy Dandridge
TTITLE10=Sympathetic Little Star - Rose Murphy
TTITLE11=J'Ai Deux Amours - Madeleine Peyroux
TTITLE12=Nikki Yanofsky - Over The Rainbow
EXTD=YEAR: 2011
EXTT0=
EXTT1=
EXTT2=
EXTT3=
EXTT4=
EXTT5=
EXTT6=
EXTT7=
EXTT8=
EXTT9=
EXTT10=
EXTT11=
EXTT12=
PLAYORDER=
